<?xml version="1.0" standalone="no"?>
<!DOCTYPE svg PUBLIC "-//W3C//DTD SVG 20010904//EN"
 "http://www.w3.org/TR/2001/REC-SVG-20010904/DTD/svg10.dtd">
<svg version="1.0" xmlns="http://www.w3.org/2000/svg"
 width="700.000000pt" height="700.000000pt" viewBox="0 0 700.000000 700.000000"
 preserveAspectRatio="xMidYMid meet">
<metadata>
Created by potrace 1.11, written by Peter Selinger 2001-2013
</metadata>
<g transform="translate(0.000000,700.000000) scale(0.100000,-0.100000)"
fill="#000000" stroke="none">
<path d="M4472 6705 c3 -3 -1 -38 -8 -78 -8 -40 -17 -87 -20 -106 -3 -18 -17
-68 -31 -110 -79 -234 -258 -437 -488 -554 -48 -24 -59 -26 -285 -32 -129 -3
-251 -7 -270 -9 -19 -3 -71 -7 -115 -10 -83 -6 -120 -10 -240 -26 -38 -6 -90
-12 -115 -15 -25 -3 -97 -15 -160 -26 -63 -12 -126 -23 -140 -26 -14 -2 -94
-20 -177 -39 -84 -18 -160 -34 -169 -34 -19 0 -148 63 -210 102 -92 58 -217
176 -286 268 -79 105 -130 207 -184 370 -13 41 -27 81 -30 89 -6 17 -109 -81
-183 -174 -84 -105 -124 -184 -168 -335 -55 -189 -26 -451 70 -630 25 -46 58
-95 131 -194 5 -8 -5 -46 -27 -102 -20 -49 -39 -102 -42 -119 -31 -154 -38
-217 -50 -475 -3 -63 -8 -146 -10 -185 -2 -38 -7 -124 -10 -190 -3 -66 -8
-154 -10 -195 -23 -417 -23 -1073 0 -1235 2 -16 7 -59 10 -95 3 -36 8 -76 10
-90 2 -14 7 -45 10 -70 8 -60 34 -198 45 -235 5 -16 21 -75 36 -130 80 -302
226 -663 339 -839 116 -181 279 -333 452 -420 48 -24 168 -61 231 -72 15 -3
52 -9 82 -14 187 -32 389 -41 595 -26 172 12 189 13 240 19 28 4 77 9 110 12
33 3 71 8 85 10 14 2 48 7 75 10 28 4 59 8 70 10 11 1 45 5 75 9 30 4 67 9 83
12 19 4 27 2 27 -9 0 -8 16 -45 35 -83 114 -227 360 -348 675 -330 283 15 498
142 565 331 11 31 19 84 20 138 1 48 4 89 6 92 3 2 39 11 82 20 114 23 225 63
285 102 221 141 321 400 340 878 13 336 5 1151 -12 1255 -2 14 -7 57 -10 96
-4 39 -8 80 -10 90 -2 11 -7 42 -10 69 -11 83 -27 178 -30 184 -2 3 -7 24 -10
46 -15 95 -91 353 -149 505 -23 59 -99 238 -149 350 -191 423 -416 774 -624
975 l-58 55 37 69 c104 192 129 375 82 604 -26 130 -120 295 -225 397 -66 64
-173 150 -186 150 -4 0 -5 -2 -2 -5z m153 -292 c48 -60 120 -198 129 -245 2
-15 7 -31 9 -35 9 -16 19 -110 18 -183 0 -95 -30 -214 -77 -307 l-36 -71 -76
49 c-129 85 -281 149 -426 182 l-60 13 45 31 c71 49 196 181 254 268 57 85
116 207 130 265 12 48 28 90 35 90 4 0 29 -26 55 -57z m-3096 -265 c55 -117
126 -222 216 -317 79 -83 208 -187 274 -221 52 -26 48 -30 -49 -55 -184 -48
-349 -150 -467 -290 l-25 -29 -29 34 c-46 56 -118 208 -139 295 -37 152 -17
349 51 491 32 68 107 184 118 184 4 0 27 -42 50 -92z m2491 -452 c163 -13 331
-72 495 -174 181 -113 386 -334 540 -583 63 -102 233 -429 285 -549 18 -41 44
-99 57 -129 68 -148 178 -459 198 -561 2 -8 10 -45 19 -81 30 -129 61 -332 72
-469 3 -36 7 -85 10 -110 3 -25 7 -288 8 -585 3 -494 -2 -683 -19 -805 -3 -25
-8 -63 -11 -85 -15 -116 -68 -261 -125 -347 -68 -100 -149 -152 -299 -191
-168 -44 -153 -48 -182 41 -14 42 -28 85 -32 94 -6 13 9 26 74 64 185 106 305
265 373 494 23 75 31 108 52 220 3 14 8 54 11 90 3 36 8 79 10 95 22 159 23
1225 0 1263 -2 4 -6 30 -10 57 -18 151 -94 319 -187 413 -125 127 -279 167
-529 138 -51 -6 -400 -73 -480 -91 -8 -2 -62 -14 -120 -25 -58 -12 -114 -23
-125 -26 -198 -42 -646 -103 -890 -120 -44 -3 -98 -7 -120 -10 -22 -2 -238 -7
-480 -9 -554 -6 -641 -10 -740 -30 -262 -54 -406 -238 -408 -525 -2 -146 12
-250 64 -470 53 -225 249 -919 305 -1082 115 -332 252 -519 453 -618 81 -40
95 -42 336 -42 183 0 333 14 515 47 14 3 36 7 50 10 34 6 244 35 300 41 25 3
55 7 67 9 12 2 55 6 96 10 l74 7 26 -108 c14 -60 25 -109 24 -110 -3 -3 -76
-14 -192 -28 -16 -2 -66 -9 -110 -15 -44 -6 -103 -13 -131 -16 -28 -3 -69 -7
-90 -9 -171 -21 -511 -27 -624 -13 -30 4 -75 10 -100 13 -151 19 -296 62 -376
110 -271 163 -439 420 -608 929 -47 138 -110 367 -121 435 -3 19 -8 42 -10 50
-2 8 -7 33 -10 55 -3 23 -7 50 -9 60 -2 11 -7 51 -11 88 -3 37 -8 78 -11 90
-12 60 -19 295 -19 602 1 331 4 425 29 915 3 63 9 162 11 220 12 235 25 422
30 430 1 3 6 26 9 51 19 143 110 318 221 422 77 74 203 147 310 180 193 60
633 167 750 182 28 4 53 9 56 11 6 3 21 6 114 20 76 11 76 11 140 18 33 4 71
9 85 11 14 2 61 7 105 11 44 3 91 8 105 9 14 2 99 7 190 10 91 4 166 8 167 9
4 3 285 -3 343 -8z m1134 -1846 c70 -27 149 -101 188 -177 27 -52 27 -54 11
-105 -24 -84 -107 -268 -149 -334 -68 -108 -150 -184 -197 -184 -23 0 -80 39
-107 73 -11 14 -36 56 -54 94 -76 154 -112 307 -131 549 l-7 82 74 12 c40 6
78 13 83 15 6 2 60 2 120 1 86 -2 123 -8 169 -26z m-621 -72 c3 -18 4 -78 2
-133 -5 -172 -74 -317 -184 -387 -159 -100 -420 85 -502 355 -10 34 -17 62
-15 64 2 2 57 12 122 23 138 23 153 26 254 47 41 8 86 17 100 20 14 2 63 12
110 23 113 24 107 25 113 -12z m-875 -199 c-1 -264 -194 -502 -407 -502 -219
-1 -430 212 -458 461 l-5 52 98 1 c55 1 117 2 139 4 159 9 255 16 285 20 19 2
67 7 105 10 66 6 138 15 142 18 1 1 24 3 51 5 l50 3 0 -72z m-1059 -114 c-6
-237 -71 -445 -183 -587 -112 -141 -232 -148 -367 -21 -148 138 -270 414 -283
638 -2 36 105 72 249 81 50 4 91 7 92 8 1 1 113 2 249 2 l246 0 -3 -121z
m1446 -1465 c244 -76 488 -273 692 -558 111 -155 189 -316 230 -476 32 -123
30 -256 -4 -321 -81 -155 -332 -244 -598 -212 -181 22 -332 120 -399 260 -24
49 -67 187 -80 252 -88 462 -296 709 -746 884 -127 50 -135 55 -118 68 38 32
302 94 399 94 176 0 423 -145 565 -331 33 -44 39 -48 42 -30 5 34 -28 127 -68
189 -43 65 -87 113 -150 161 -25 18 -49 38 -55 43 -20 18 217 -1 290 -23z
m1053 -303 c58 -36 96 -78 127 -139 l25 -47 -43 -49 c-49 -58 -199 -162 -231
-162 -3 0 -15 19 -27 43 -12 23 -51 86 -87 140 -72 108 -72 107 -14 173 71 82
163 96 250 41z m-1713 -132 c70 -47 169 -144 214 -208 33 -48 86 -156 80 -162
-2 -1 -40 -6 -83 -10 -43 -4 -86 -8 -95 -10 -9 -1 -45 -6 -81 -10 -36 -4 -67
-8 -70 -10 -3 -1 -31 -6 -63 -9 -32 -4 -95 -14 -140 -22 -131 -23 -133 -22
-141 32 -30 219 55 381 227 435 69 22 83 19 152 -26z m-771 -30 c105 -53 198
-163 237 -282 26 -77 35 -169 18 -171 -55 -7 -405 -9 -450 -2 -33 5 -76 21
-110 41 -61 37 -179 152 -179 175 0 46 106 182 176 225 93 57 210 63 308 14z"/>
<path d="M2617 5434 c-1 -1 -29 -5 -62 -8 -173 -18 -358 -108 -484 -236 -142
-145 -211 -304 -216 -500 -7 -212 74 -406 232 -556 158 -151 375 -234 598
-228 98 2 140 9 230 35 384 115 624 485 555 858 -56 308 -313 557 -640 620
-49 10 -206 21 -213 15z m238 -148 c237 -65 428 -253 484 -478 92 -377 -205
-746 -623 -774 -404 -27 -741 269 -737 646 2 246 158 465 406 572 53 22 88 32
190 52 45 8 224 -3 280 -18z"/>
<path d="M2470 4886 c-129 -36 -237 -148 -265 -276 -20 -93 6 -213 62 -287 49
-64 67 -79 143 -116 181 -88 396 -8 481 180 105 229 -57 495 -308 507 -37 2
-88 -2 -113 -8z"/>
<path d="M4083 5174 c-185 -48 -343 -212 -381 -397 -15 -75 -8 -194 17 -270
122 -366 582 -475 854 -201 199 201 199 530 0 729 -66 65 -126 102 -218 131
-81 26 -192 29 -272 8z m239 -121 c180 -62 294 -227 281 -408 -21 -303 -354
-473 -608 -311 -240 154 -243 505 -7 668 92 63 236 85 334 51z"/>
<path d="M4204 4871 c-22 -10 -56 -37 -75 -59 -132 -154 -14 -381 190 -368 58
4 99 25 146 73 105 109 62 299 -81 359 -46 19 -131 17 -180 -5z"/>
</g>
</svg>
