<?xml version="1.0" standalone="no"?>
<!DOCTYPE svg PUBLIC "-//W3C//DTD SVG 20010904//EN"
 "http://www.w3.org/TR/2001/REC-SVG-20010904/DTD/svg10.dtd">
<svg version="1.0" xmlns="http://www.w3.org/2000/svg"
 width="2656.000000pt" height="2656.000000pt" viewBox="0 0 2656.000000 2656.000000"
 preserveAspectRatio="xMidYMid meet">
<metadata>
Created by potrace 1.11, written by Peter Selinger 2001-2013
</metadata>
<g transform="translate(0.000000,2656.000000) scale(0.100000,-0.100000)"
fill="#000000" stroke="none">
<path d="M17011 26117 c1 -289 -2 -482 -10 -557 -88 -833 -428 -1556 -1001
-2131 -172 -172 -277 -259 -585 -484 -126 -92 -234 -171 -240 -175 -5 -4
-2191 -140 -4856 -301 l-4845 -293 -257 164 c-292 187 -385 252 -524 365 -134
109 -390 367 -496 500 -362 453 -602 972 -711 1540 -37 192 -53 352 -72 728
-10 185 -21 342 -25 348 -8 14 -559 -220 -769 -327 -641 -325 -1153 -839
-1464 -1469 -177 -359 -279 -711 -322 -1115 -29 -275 -10 -782 36 -985 6 -24
10 -4394 10 -10979 l0 -10939 68 7 c37 3 5629 422 12427 931 6797 509 12361
928 12364 930 2 3 -1333 4740 -2967 10527 l-2971 10523 1 250 c1 268 -9 406
-48 635 -172 1021 -815 1889 -1754 2365 -189 96 -261 125 -628 255 -169 59
-320 113 -335 119 l-28 11 2 -443z m909 -912 c430 -303 761 -760 903 -1250 72
-245 97 -403 104 -659 l6 -199 -214 7 c-118 3 -520 11 -894 16 -374 6 -730 13
-791 16 l-112 6 78 101 c237 311 436 664 583 1037 108 275 191 565 238 838 12
72 25 132 29 132 3 0 35 -20 70 -45z m-15241 -862 c90 -371 247 -764 435
-1098 141 -249 374 -573 540 -752 32 -35 54 -63 50 -63 -5 0 -454 -38 -999
-85 -645 -54 -993 -80 -1000 -74 -6 6 -10 109 -10 267 0 202 4 283 19 377 81
523 307 974 666 1336 86 86 247 228 260 229 3 0 21 -62 39 -137z m16440 -2236
c16 -42 5492 -19439 5489 -19442 -2 -2 -5119 -386 -11373 -854 -6254 -468
-11394 -854 -11422 -857 l-53 -6 0 10066 0 10066 53 1 c40 0 17226 1042 17285
1048 7 0 16 -9 21 -22z"/>
<path d="M5391 20934 c-373 -63 -737 -327 -972 -704 -163 -264 -274 -587 -321
-940 -19 -140 -16 -518 5 -660 40 -269 102 -478 209 -700 208 -435 520 -734
896 -860 237 -79 541 -81 771 -4 313 105 604 345 799 660 379 610 446 1468
170 2166 -100 254 -239 469 -418 648 -220 220 -455 347 -734 395 -108 18 -291
18 -405 -1z"/>
<path d="M15210 20653 c-705 -72 -1258 -430 -1426 -921 -45 -132 -58 -222 -51
-372 15 -345 208 -656 547 -882 168 -112 432 -221 642 -267 318 -69 707 -69
1023 -1 349 76 642 228 866 450 249 245 363 537 330 844 -15 133 -39 217 -99
341 -208 428 -726 737 -1344 804 -90 10 -406 13 -488 4z"/>
<path d="M11220 15742 c-5118 -520 -9306 -947 -9308 -948 -3 -2 260 -11943
278 -12609 5 -203 13 -473 16 -598 l7 -229 56 6 c31 3 4961 351 10956 772
5995 421 10902 768 10904 770 2 2 -785 3069 -1749 6816 -964 3747 -1762 6848
-1773 6891 -19 76 -20 77 -51 76 -17 -1 -4218 -427 -9336 -947z m8096 -139
c10 -109 -2 -445 -21 -592 -87 -677 -391 -1231 -723 -1321 -61 -16 -205 -14
-298 5 -545 112 -1147 671 -1484 1378 -72 151 -143 327 -135 336 7 6 2537 268
2612 270 l41 1 8 -77z m-3840 -484 c-15 -369 -68 -675 -171 -985 -113 -340
-277 -628 -477 -839 -106 -112 -197 -181 -303 -232 -151 -71 -315 -55 -530 52
-159 80 -280 170 -441 330 -370 369 -630 858 -769 1448 -15 64 -26 119 -23
122 5 6 2607 272 2672 274 l49 1 -7 -171z m-4192 -286 c11 -72 6 -425 -9 -570
-48 -455 -184 -863 -394 -1179 -171 -258 -353 -426 -586 -540 -259 -126 -500
-146 -765 -62 -606 192 -1241 883 -1534 1671 -46 122 -108 336 -104 356 3 14
265 43 1678 187 921 94 1682 172 1691 173 11 1 18 -10 23 -36z m9946 -4153
c584 -2269 1064 -4134 1067 -4144 3 -11 -43 26 -103 81 -606 565 -1254 855
-1854 830 -282 -12 -519 -86 -779 -243 -596 -362 -1096 -1135 -1341 -2073
l-12 -44 -82 159 c-385 741 -897 1282 -1489 1570 -438 213 -868 249 -1297 108
-219 -72 -512 -237 -730 -410 -119 -94 -399 -378 -504 -509 -289 -364 -538
-822 -696 -1282 l-52 -152 -62 122 c-89 175 -146 271 -261 447 -522 794 -1265
1339 -2010 1476 -78 15 -150 19 -325 19 -198 0 -239 -3 -340 -24 -344 -70
-700 -247 -1020 -506 -497 -401 -930 -1036 -1170 -1712 -18 -51 -36 -93 -39
-93 -4 0 -17 21 -30 48 -63 129 -235 390 -364 552 -514 643 -1201 1066 -1937
1191 -161 27 -487 37 -656 20 -572 -59 -1113 -291 -1619 -695 -102 -82 -381
-353 -473 -461 l-51 -60 -1 85 c0 47 -38 1786 -85 3865 -47 2079 -85 3791 -85
3805 0 17 26 -22 76 -115 84 -154 228 -378 320 -496 379 -490 876 -836 1388
-964 883 -222 1754 134 2336 955 210 297 387 672 491 1045 35 126 39 137 46
118 9 -24 223 -341 283 -418 471 -608 1036 -1015 1612 -1160 151 -39 286 -55
463 -55 181 0 307 16 473 60 933 249 1632 1171 1807 2385 7 47 8 48 18 25 195
-463 447 -854 755 -1172 366 -377 774 -614 1197 -694 122 -24 360 -24 477 -1
633 125 1202 717 1527 1590 43 117 115 355 138 460 l8 38 82 -118 c222 -320
500 -613 791 -832 288 -217 669 -399 967 -460 508 -104 919 -1 1285 322 293
258 549 706 684 1194 38 137 80 330 92 428 5 46 9 55 15 40 5 -11 486 -1876
1069 -4145z m-14507 3638 c12 -184 -19 -546 -69 -781 -185 -877 -677 -1492
-1306 -1633 -105 -24 -336 -24 -448 0 -717 154 -1339 936 -1539 1934 -40 199
-43 222 -34 222 4 1 748 77 1653 169 905 93 1666 169 1691 170 l46 1 6 -82z
m13828 -7754 c267 -45 568 -193 859 -424 140 -111 392 -365 518 -522 105 -132
273 -380 357 -527 131 -231 276 -560 364 -827 63 -192 161 -569 150 -578 -2
-1 -857 -62 -1899 -135 -1042 -72 -1907 -134 -1922 -136 -23 -4 -29 0 -35 23
-15 56 -8 670 10 830 75 663 264 1230 558 1669 193 287 439 511 650 593 133
51 235 60 390 34z m-4610 -434 c388 -56 836 -400 1181 -905 334 -489 555
-1092 638 -1739 10 -83 18 -151 17 -153 -3 -3 -3703 -263 -3745 -263 l-33 0 6
123 c22 427 86 794 201 1148 131 403 302 740 531 1048 100 133 359 398 474
484 177 131 369 223 526 251 96 17 120 18 204 6z m-5075 -375 c537 -94 1133
-575 1524 -1231 188 -316 325 -649 419 -1026 42 -165 99 -493 88 -504 -6 -6
-4022 -293 -4106 -294 l-34 0 7 178 c41 1101 515 2113 1229 2625 119 85 208
135 330 185 192 78 359 99 543 67z m-5162 -535 c295 -58 607 -202 872 -400
639 -481 1040 -1246 1090 -2081 l7 -117 -69 -6 c-107 -10 -4479 -316 -4513
-316 l-31 0 0 254 c0 277 12 408 56 606 119 531 361 981 734 1364 218 223 417
372 670 500 203 103 430 178 620 205 41 6 86 13 100 15 68 12 360 -3 464 -24z"/>
</g>
</svg>
