<svg id="SVGLOGO" viewBox="0 0 1000 1000">
    <path class="stroke stroke18" d="M558,884.9c-37.5,4.4-48.2,7.7-95,12.1c-40.4,3.9-59.2,4-78,2.5c-32.5-2.6-59.6-8.8-69.9-13.4c-63.8-29.1-88.2-96.6-109.3-163.6c-29.6-94.1-24.2-189.9-13.4-381.3c1.2-22.1,3.9-59.3,30.5-89.6c23.1-26.4,54.1-35.7,71.7-39.4c62.3-18.6,140.1-34.4,230.3-35.8c36.4-0.6,55.1-0.7,77.1,5.4c98.2,27.2,146,135,178.2,207.8c47.4,107,46.1,187.6,43.9,332.9c-1.4,89-22.9,112.7-41.2,126.8c-12.7,9.8-29.3,13.2-61.9,19.7"/>
    <path class="stroke stroke18" d="M539,837c-31.4,2.9-56.7,6.4-74,9c-32.4,5-51.7,9.3-82,10c-18.7,0.5-34-0.6-43.9-1.6c0,0-11.1-3.8-21.3-11.5c-34.8-26.2-47-69.9-69.9-152.3c-26.6-95.5-39.8-143.2-21.5-178.1c30.8-58.5,109.9-17,302.9-44.3c137-19.4,193.9-53.9,232.1-11.3c27.4,30.6,26.9,80.4,26,156.4c-0.9,82.3-1.6,141.5-35,182.2c-8.9,10.8-20.6,18.1-20.6,18.1c-7.4,4.1-14.8,8.2-22.1,12.4"/>
    <ellipse class="stroke stroke18" cx="381" cy="332.9" rx="107.6" ry="100.4"/>
    <ellipse class="stroke stroke17" cx="601.1" cy="332.8" rx="65.4" ry="65.9"/>
    <circle class="fill fill16" cx="365.9" cy="352.3" r="43.9"/>
    <circle class="fill fill11" cx="614.1" cy="333.3" r="26.5"/>
    <path class="stroke stroke18" d="M379.6,481.9c7.5,75.9-29,130.3-58.3,132.6c-29.2,2.4-73.8-45.3-78.9-121"/>
    <path class="stroke stroke18" d="M530.1,470.2c10.2,51.7-24.9,95.7-60.9,99.5c-37.6,3.9-82.8-35.2-79.8-90.5"/>
    <path class="stroke stroke18" d="M776.6,482.8c-15,52.7-41.1,91.9-62.7,90.5c-24.1-1.5-49.9-53.6-50.2-130.8"/>
    <path class="stroke stroke18" d="M653.8,446.9c14.1,50.7-11.9,94.4-38.5,100.4c-27.6,6.2-72-24.5-78-79.8"/>
    <path class="stroke stroke18" d="M293,816.5c9.8-27.8,32.1-48.1,56-50c34.4-2.7,73,32.5,72,83"/>
    <path class="stroke stroke18" d="M675.3,773.2c2.8-5.5,13.7-27.2,33.7-29.7c19.6-2.5,42.1,14.2,51,42"/>
    <path class="stroke stroke18" d="M423.8,849.5c-10.1-29-3.5-59.1,16.2-75.5c13.7-11.4,29.8-12.9,37-13"/>
    <path class="stroke stroke18" d="M322,204.5c-14.2-5.1-40.6-16.6-65-42c-26.6-27.6-36.9-57.3-41-72c-5.5,4.8-39.8,35.5-41,87c-1.2,51.6,31.7,84,37,89"/>
    <path class="stroke stroke18" d="M671,213.5c4.3-5.8,27.6-38.8,20-84c-7.4-44.2-38.9-67.7-45-72c-1.7,13.2-7.1,42.2-29,71c-22.4,29.4-49.7,42.5-62,47.5"/>
    <path class="fill fill18" d="M389,523c12.9-1.7,16.4,29.8,47,45c20.9,10.4,51.7,11.7,71-3c25.9-19.7,21.7-60.8,33-61c6.5-0.1,7.2,13.3,23,30c7.6,8.1,19.9,21,38,23c18.8,2.1,37-8.4,47-21c12.2-15.5,11.1-33.2,15-33c4.3,0.2,2.1,21.6,15,45c5.2,9.4,12.4,22.4,26,27c19.8,6.7,42.4-7.9,54-21c16.8-19,16.4-41.3,19-41c5,0.6-0.5,82.3-3,120c-5.2,79.1,1.2,134.9-13,138c-9.9,2.2-16.1-24.3-43-30c-7-1.5-24.6,1.6-41,10c-4.2,2.1-7.3,4.2-12,4c-11.1-0.4-18.3-12.6-24-20c-9.9-12.8-22.6-18.9-48-31c-39.2-18.7-80.5-11.7-102-8c-43.8,7.5-92,28.4-90,41c2,13,56.5,15.1,56,21c-0.3,3.2-15.6,0.2-26,10c-13.7,12.9-6.8,36.7-13,38c-4.9,1-7.8-13.4-22-27c-4.3-4.1-21.4-20.6-45-20c-20.8,0.5-35.6,13.9-39,17c-13.8,12.5-14.2,23.9-20,24c-10.1,0.3-17.8-33.4-28-72c-22.9-86.4-29-87-35-130c-6.8-49-4.6-90.2,1-91c7.8-1.1,7.9,79.4,57,105c3.3,1.7,31.8,16.1,55,4C379.3,596.5,369.7,525.5,389,523z"/>
    <path class="stroke stroke18" d="M715,916c-21,34.1-93.8,44-134,16c-47.9-33.3-20.2-99.8-78-152c-39-35.2-85.6-35.6-84-50c1.8-16.5,63.3-23.7,83-26c5.2-0.6,39.8-4.7,62-2C653.9,712.8,750.1,859,715,916z"/>
    <path class="fullfill" d="M446.3,713.6c2.7-2.3,5.6-4.2,8.7-5.9c1.5-0.9,3.1-1.6,4.7-2.3s3.2-1.3,4.8-1.9c6.5-2.3,13.4-3.6,20.4-4.2c7-0.5,14-0.1,21,1.1c1.7,0.3,3.5,0.7,5.2,1.1c1.7,0.4,3.4,0.9,5.1,1.4c3.4,1,6.7,2.3,10,3.6c13,5.7,24.7,14.2,33.6,25c4.4,5.4,8.2,11.3,11.1,17.6c0.7,1.6,1.4,3.1,2,4.8c0.6,1.6,1.2,3.2,1.6,4.9c0.9,3.3,1.7,6.7,1.9,10.3l-1.5,0.9c-3.4-5.2-7.2-10.1-11.3-14.7c-4.1-4.6-8.5-8.9-13.2-12.9c-4.8-4-9.7-7.6-14.9-10.9l-3.9-2.4c-1.3-0.8-2.7-1.4-4.1-2.2l-2-1.1c-0.7-0.3-1.4-0.6-2.1-1l-4.2-1.9c-1.4-0.6-2.9-1.1-4.3-1.7c-1.4-0.6-2.8-1.2-4.3-1.6c-1.5-0.5-2.9-1-4.4-1.4l-4.4-1.2c-6-1.5-12-2.5-18.1-3.2c-6.1-0.6-12.3-0.8-18.4-0.5c-6.2,0.2-12.3,0.9-18.4,2.1L446.3,713.6z"/>
</svg>